<svg width="573" height="557" viewBox="0 0 573 557" fill="none" xmlns="http://www.w3.org/2000/svg">
<circle cx="287" cy="279" r="223" fill="#E29960"/>
<path d="M181.058 362.147C145.125 359.202 115.672 313.844 115.672 313.844C115.672 369.805 165.153 390.422 187.537 382.764C207.566 376.284 181.058 362.147 181.058 362.147Z" fill="#947151"/>
<path d="M341.283 419.875C351.297 431.656 397.244 419.875 404.902 406.327C434.944 350.366 404.902 314.433 404.902 314.433L341.283 333.872C341.283 334.461 328.323 405.148 341.283 419.875Z" fill="#EABC92"/>
<path d="M298.281 445.794C309.473 458.753 350.119 458.164 361.9 445.794C379.572 428.122 378.394 347.42 379.572 308.542L304.761 302.062C304.761 302.062 284.144 428.711 298.281 445.794Z" fill="#F5D1AC"/>
<path d="M255.28 419.875C245.266 431.656 199.319 419.875 191.661 406.327C161.619 350.366 191.661 314.433 191.661 314.433L255.28 333.872C255.28 334.461 268.828 405.148 255.28 419.875Z" fill="#EABC92"/>
<path d="M298.87 445.794C287.678 458.753 247.033 458.164 235.252 445.794C217.58 428.122 218.758 347.42 217.58 308.542L292.391 302.062C292.391 302.062 313.008 428.711 298.87 445.794Z" fill="#F5D1AC"/>
<path d="M298.281 446.383C296.514 434.012 295.925 421.642 295.925 409.272C295.925 396.902 296.514 384.531 298.281 372.161C300.048 384.531 300.638 396.902 300.638 409.272C300.638 421.642 300.048 434.012 298.281 446.383Z" fill="#423223"/>
<path d="M298.281 363.914C238.197 363.914 207.566 340.352 207.566 340.352C207.566 340.352 227.594 393.956 298.281 393.956C368.969 393.956 388.997 340.352 388.997 340.352C388.997 340.352 358.366 363.914 298.281 363.914Z" fill="#3E4347"/>
<path d="M281.198 378.641C281.198 370.394 284.733 363.914 288.856 363.325C287.678 362.147 285.911 361.558 284.733 361.558C279.431 361.558 275.308 369.216 275.308 378.641C275.308 388.066 279.431 395.724 284.733 395.724C286.5 395.724 287.678 394.545 288.856 393.367C284.733 393.367 281.198 386.888 281.198 378.641Z" fill="white"/>
<path d="M212.867 343.297C176.934 320.913 162.797 233.142 174.578 193.675C183.414 164.222 215.812 120.631 245.266 108.85C270.006 99.425 327.145 99.425 351.886 108.85C381.339 120.042 414.327 163.633 422.573 193.675C434.355 233.731 425.519 320.913 389.586 343.297C314.186 390.422 288.267 390.422 212.867 343.297Z" fill="#F5D1AC"/>
<path d="M156.317 202.511C175.167 243.156 179.88 244.923 198.141 196.62C207.566 170.702 201.086 155.386 212.278 138.892C218.758 129.467 232.895 114.741 232.895 114.741C232.895 114.741 119.795 125.933 156.317 202.511Z" fill="#423223"/>
<path d="M204.031 112.973C175.756 130.645 115.083 123.577 151.016 200.155C169.866 240.8 174.578 242.567 192.839 194.264C202.264 168.345 195.784 153.03 206.977 136.536C213.456 127.111 232.895 114.741 232.895 114.741C232.895 114.741 224.059 100.603 204.031 112.973Z" fill="#947151"/>
<path d="M440.834 202.511C421.984 243.156 417.272 244.923 399.011 196.62C389.586 170.702 396.066 155.386 384.873 138.892C378.394 129.467 364.256 114.741 364.256 114.741C364.256 114.741 477.356 125.933 440.834 202.511Z" fill="#423223"/>
<path d="M393.12 112.973C421.395 130.645 482.658 123.577 446.725 200.155C427.875 240.8 423.162 242.567 404.902 194.264C395.477 168.345 401.956 153.03 390.764 136.536C384.284 127.111 364.845 114.741 364.845 114.741C364.845 114.741 373.092 100.603 393.12 112.973Z" fill="#947151"/>
<path d="M222.881 203.1C240.553 203.1 254.691 216.648 254.691 233.731C254.691 250.814 240.553 264.362 222.881 264.362C205.209 264.362 191.072 250.814 191.072 233.731C191.072 216.648 205.798 203.1 222.881 203.1Z" fill="white"/>
<path d="M215.223 256.705C228.237 256.705 238.786 246.419 238.786 233.731C238.786 221.043 228.237 210.758 215.223 210.758C202.21 210.758 191.661 221.043 191.661 233.731C191.661 246.419 202.21 256.705 215.223 256.705Z" fill="#3E4347"/>
<path d="M405.491 233.731C405.491 250.814 391.353 264.362 373.681 264.362C356.009 264.362 341.872 250.814 341.872 233.731C341.872 216.648 356.009 203.1 373.681 203.1C391.353 203.1 405.491 216.648 405.491 233.731Z" fill="white"/>
<path d="M381.928 256.705C394.941 256.705 405.491 246.419 405.491 233.731C405.491 221.043 394.941 210.758 381.928 210.758C368.915 210.758 358.366 221.043 358.366 233.731C358.366 246.419 368.915 256.705 381.928 256.705Z" fill="#3E4347"/>
<path d="M244.087 326.214L268.828 350.955C283.555 365.681 314.186 365.681 328.913 350.955L353.653 326.214L327.734 300.884H269.417L244.087 326.214Z" fill="#7D644B"/>
<path d="M298.281 279.089C298.281 279.089 272.362 315.022 275.897 332.105C280.02 356.845 317.131 356.845 321.255 332.105C324.2 315.022 298.281 279.089 298.281 279.089Z" fill="#F15A61"/>
<path d="M298.281 341.53L304.172 306.775H292.98L298.281 341.53Z" fill="#BA454B"/>
<path d="M271.773 289.103H324.789V312.666H271.773V289.103Z" fill="#423223"/>
<path d="M382.517 294.405L344.817 256.116C321.844 233.142 275.308 233.142 252.923 256.116L215.223 294.405C204.62 305.008 204.62 322.68 215.223 333.872C225.827 344.475 243.498 344.475 254.102 333.872L291.802 295.583C295.336 292.048 302.405 292.048 305.939 295.583L343.639 333.872C354.242 344.475 371.914 344.475 382.517 333.872C393.12 323.269 393.12 305.597 382.517 294.405Z" fill="#947151"/>
<path d="M267.061 259.061C267.061 245.513 281.198 243.156 298.281 243.156C315.364 243.156 329.502 245.513 329.502 259.061C329.502 269.664 304.761 279.089 298.281 279.089C292.391 279.089 267.061 269.664 267.061 259.061ZM257.636 270.842L252.334 276.144L257.636 281.445L262.937 276.144L257.636 270.842ZM245.266 284.98L239.964 290.281L245.266 295.583L250.567 290.281L245.266 284.98ZM261.759 290.281L256.458 295.583L261.759 300.884L267.061 295.583L261.759 290.281ZM339.516 270.842L344.817 276.144L339.516 281.445L334.214 276.144L339.516 270.842ZM351.886 284.98L357.187 290.281L351.886 295.583L346.584 290.281L351.886 284.98ZM335.392 290.281L340.694 295.583L335.392 300.884L330.091 295.583L335.392 290.281Z" fill="#3E4347"/>
<circle cx="286.5" cy="278.5" r="257" stroke="#E29960"/>
</svg>
