<svg width="48" height="48" viewBox="0 0 48 48" fill="none" xmlns="http://www.w3.org/2000/svg">
<rect width="48" height="48" rx="24" fill="#E5561C"/>
<g clip-path="url(#clip0_2_92)">
<path d="M20 12C19.1513 12 18.3374 12.3371 17.7373 12.9373C17.1371 13.5374 16.8 14.3513 16.8 15.2V16.8C16.8 17.6487 17.1371 18.4626 17.7373 19.0627C18.3374 19.6629 19.1513 20 20 20C20.8487 20 21.6626 19.6629 22.2627 19.0627C22.8629 18.4626 23.2 17.6487 23.2 16.8V15.2C23.2 14.3513 22.8629 13.5374 22.2627 12.9373C21.6626 12.3371 20.8487 12 20 12V12ZM28 12C27.1513 12 26.3374 12.3371 25.7373 12.9373C25.1371 13.5374 24.8 14.3513 24.8 15.2V16.8C24.8 17.6487 25.1371 18.4626 25.7373 19.0627C26.3374 19.6629 27.1513 20 28 20C28.8487 20 29.6626 19.6629 30.2627 19.0627C30.8629 18.4626 31.2 17.6487 31.2 16.8V15.2C31.2 14.3513 30.8629 13.5374 30.2627 12.9373C29.6626 12.3371 28.8487 12 28 12V12ZM15.2 20C14.3513 20 13.5374 20.3371 12.9373 20.9373C12.3371 21.5374 12 22.3513 12 23.2V24C12 24.8487 12.3371 25.6626 12.9373 26.2627C13.5374 26.8629 14.3513 27.2 15.2 27.2C16.0487 27.2 16.8626 26.8629 17.4627 26.2627C18.0629 25.6626 18.4 24.8487 18.4 24V23.2C18.4 22.3513 18.0629 21.5374 17.4627 20.9373C16.8626 20.3371 16.0487 20 15.2 20ZM32.8 20C31.9513 20 31.1374 20.3371 30.5373 20.9373C29.9371 21.5374 29.6 22.3513 29.6 23.2V24C29.6 24.8487 29.9371 25.6626 30.5373 26.2627C31.1374 26.8629 31.9513 27.2 32.8 27.2C33.6487 27.2 34.4626 26.8629 35.0627 26.2627C35.6629 25.6626 36 24.8487 36 24V23.2C36 22.3513 35.6629 21.5374 35.0627 20.9373C34.4626 20.3371 33.6487 20 32.8 20ZM27.3808 24.4464C26.97 23.9474 26.4538 23.5455 25.8692 23.2696C25.2847 22.9937 24.6464 22.8506 24 22.8506C23.3536 22.8506 22.7153 22.9937 22.1308 23.2696C21.5462 23.5455 21.03 23.9474 20.6192 24.4464L15.952 30.1152C14.0176 32.4624 15.688 36 18.728 36C19.1632 36 19.592 35.8992 19.9792 35.704L20.5552 35.416C21.6248 34.8812 22.8042 34.6027 24 34.6027C25.1958 34.6027 26.3752 34.8812 27.4448 35.416L28.0208 35.704C28.408 35.8992 28.8368 36 29.272 36C32.312 36 33.9824 32.4624 32.0496 30.1152L27.3808 24.4464Z" fill="#FCF1E7"/>
</g>
<defs>
<clipPath id="clip0_2_92">
<rect width="24" height="24" fill="white" transform="translate(12 12)"/>
</clipPath>
</defs>
</svg>
