<svg width="81" height="81" viewBox="0 0 81 81" fill="none" xmlns="http://www.w3.org/2000/svg">
<g clip-path="url(#clip0_2_39)">
<path d="M21.2785 11.1759C19.0211 11.7688 17.0917 13.234 15.9147 15.2494C14.7377 17.2648 14.4095 19.6652 15.0023 21.9225L16.1199 26.1782C16.7127 28.4356 18.178 30.365 20.1933 31.542C22.2087 32.719 24.6091 33.0473 26.8665 32.4544C29.1238 31.8616 31.0533 30.3964 32.2303 28.381C33.4073 26.3656 33.7355 23.9652 33.1427 21.7079L32.0251 17.4522C31.4323 15.1948 29.967 13.2654 27.9516 12.0884C25.9363 10.9113 23.5359 10.5831 21.2785 11.1759V11.1759ZM42.557 5.58797C40.2996 6.18078 38.3702 7.64604 37.1932 9.66142C36.0162 11.6768 35.688 14.0772 36.2808 16.3346L37.3984 20.5903C37.9912 22.8476 39.4565 24.777 41.4718 25.9541C43.4872 27.1311 45.8876 27.4593 48.145 26.8665C50.4023 26.2737 52.3318 24.8084 53.5088 22.793C54.6858 20.7776 55.014 18.3772 54.4212 16.1199L53.3036 11.8642C52.7108 9.60682 51.2455 7.6774 49.2301 6.50039C47.2148 5.32337 44.8144 4.99516 42.557 5.58797V5.58797ZM14.0994 35.8072C11.842 36.4 9.91259 37.8653 8.73558 39.8807C7.55856 41.8961 7.23035 44.2965 7.82316 46.5538L8.38196 48.6817C8.97477 50.939 10.44 52.8684 12.4554 54.0455C14.4708 55.2225 16.8712 55.5507 19.1285 54.9579C21.3859 54.3651 23.3153 52.8998 24.4923 50.8844C25.6694 48.8691 25.9976 46.4687 25.4048 44.2113L24.846 42.0834C24.2532 39.8261 22.7879 37.8967 20.7725 36.7196C18.7571 35.5426 16.3567 35.2144 14.0994 35.8072ZM60.9121 23.5137C58.6547 24.1065 56.7253 25.5718 55.5483 27.5871C54.3713 29.6025 54.0431 32.0029 54.6359 34.2603L55.1947 36.3881C55.7875 38.6455 57.2527 40.5749 59.2681 41.7519C61.2835 42.9289 63.6839 43.2571 65.9412 42.6643C68.1986 42.0715 70.128 40.6063 71.305 38.5909C72.4821 36.5755 72.8103 34.1751 72.2175 31.9178L71.6587 29.7899C71.0659 27.5325 69.6006 25.6031 67.5852 24.4261C65.5698 23.2491 63.1694 22.9209 60.9121 23.5137ZM49.6038 39.1256C48.1625 38.0853 46.5088 37.3769 44.7614 37.0514C43.0139 36.7259 41.2161 36.7912 39.4969 37.2427C37.7777 37.6941 36.1797 38.5206 34.8177 39.6627C33.4557 40.8048 32.3634 42.2343 31.6192 43.8485L23.165 62.1865C19.6594 69.7808 26.5733 78.0234 34.6591 75.8999C35.8167 75.5959 36.8868 75.0283 37.7803 74.2387L39.1112 73.0703C41.5825 70.9007 44.525 69.3363 47.7057 68.501C50.8864 67.6657 54.2179 67.5825 57.4363 68.258L59.1695 68.6216C60.3357 68.8704 61.5466 68.839 62.7042 68.535C70.79 66.4116 72.762 55.8354 65.9816 50.9424L49.6038 39.1256Z" fill="#F2CFB6"/>
</g>
<defs>
<clipPath id="clip0_2_39">
<rect width="66" height="66" fill="white" transform="translate(0 16.7639) rotate(-14.7143)"/>
</clipPath>
</defs>
</svg>
