<svg width="66" height="72" viewBox="0 0 66 72" fill="none" xmlns="http://www.w3.org/2000/svg">
<path d="M14.2785 6.17594C12.0211 6.76875 10.0917 8.23402 8.9147 10.2494C7.73769 12.2648 7.40948 14.6652 8.00229 16.9225L9.11988 21.1782C9.71269 23.4356 11.178 25.365 13.1933 26.542C15.2087 27.719 17.6091 28.0473 19.8665 27.4544C22.1238 26.8616 24.0533 25.3964 25.2303 23.381C26.4073 21.3656 26.7355 18.9652 26.1427 16.7079L25.0251 12.4522C24.4323 10.1948 22.967 8.26538 20.9516 7.08836C18.9363 5.91134 16.5359 5.58313 14.2785 6.17594V6.17594ZM35.557 0.587972C33.2996 1.18078 31.3702 2.64604 30.1932 4.66142C29.0162 6.6768 28.688 9.0772 29.2808 11.3346L30.3984 15.5903C30.9912 17.8476 32.4565 19.777 34.4718 20.9541C36.4872 22.1311 38.8876 22.4593 41.145 21.8665C43.4023 21.2737 45.3318 19.8084 46.5088 17.793C47.6858 15.7776 48.014 13.3772 47.4212 11.1199L46.3036 6.86418C45.7108 4.60682 44.2455 2.6774 42.2301 1.50039C40.2148 0.323368 37.8144 -0.00483764 35.557 0.587972V0.587972ZM7.09937 30.8072C4.84201 31.4 2.91259 32.8653 1.73558 34.8807C0.558557 36.8961 0.230352 39.2965 0.823161 41.5538L1.38196 43.6817C1.97477 45.939 3.44003 47.8684 5.45541 49.0455C7.47078 50.2225 9.87118 50.5507 12.1285 49.9579C14.3859 49.3651 16.3153 47.8998 17.4923 45.8844C18.6694 43.8691 18.9976 41.4687 18.4048 39.2113L17.846 37.0834C17.2532 34.8261 15.7879 32.8967 13.7725 31.7196C11.7571 30.5426 9.35674 30.2144 7.09937 30.8072ZM53.9121 18.5137C51.6547 19.1065 49.7253 20.5718 48.5483 22.5871C47.3713 24.6025 47.0431 27.0029 47.6359 29.2603L48.1947 31.3881C48.7875 33.6455 50.2527 35.5749 52.2681 36.7519C54.2835 37.9289 56.6839 38.2571 58.9412 37.6643C61.1986 37.0715 63.128 35.6063 64.305 33.5909C65.4821 31.5755 65.8103 29.1751 65.2175 26.9178L64.6587 24.7899C64.0659 22.5325 62.6006 20.6031 60.5852 19.4261C58.5698 18.2491 56.1694 17.9209 53.9121 18.5137ZM42.6038 34.1256C41.1625 33.0853 39.5088 32.3769 37.7614 32.0514C36.0139 31.7259 34.2161 31.7912 32.4969 32.2427C30.7777 32.6941 29.1797 33.5206 27.8177 34.6627C26.4557 35.8048 25.3634 37.2343 24.6192 38.8485L16.165 57.1865C12.6594 64.7808 19.5733 73.0234 27.6591 70.8999C28.8167 70.5959 29.8868 70.0283 30.7803 69.2387L32.1112 68.0703C34.5825 65.9007 37.525 64.3363 40.7057 63.501C43.8864 62.6657 47.2179 62.5825 50.4363 63.258L52.1695 63.6216C53.3357 63.8704 54.5466 63.839 55.7042 63.535C63.79 61.4116 65.762 50.8354 58.9816 45.9424L42.6038 34.1256Z" fill="#F2CFB6"/>
</svg>
